<?xml version="1.0" encoding="UTF-8"?>
<svg id="bird" xmlns="http://www.w3.org/2000/svg" viewBox="0 0 361 260.73">
  <g id="Bird">
    <path class="bird-1" d="M361,77s-75.59-57.91-114-30c-32.83,23.86-47.75,40-64,53-32.16,25.73-86.56,52.81-183,53,0,0,73,58,145,46,0,0-24.5,12.25-54,21.75-46.86,15.09-82.61-.26-84,5.25-1.58,6.25,41.08,28.9,92,34,10.95,1.1,54.86,3.81,105-18,8-3.48,26.4-12.04,50-30,53.12-40.43,86.74-93.6,107-135Z"/>
  </g>
  <g id="Wing">
    <polyline class="bird-1" points="220 80 90 0 141 54 68 49 134 92 83.81 92 168 142"/>
  </g>
  <g id="Eye">
    <path class="bird-2" d="M304.5,80c0,8.56-2.91,15.5-6.5,15.5s-6.5-6.94-6.5-15.5,2.91-15.5,6.5-15.5,6.5,6.94,6.5,15.5ZM300,67.5c-1.93,0-3.5,3.36-3.5,7.5s1.57,7.5,3.5,7.5,3.5-.36,3.5-4.5-1.57-10.5-3.5-10.5Z"/>
  </g>
</svg>