<?xml version="1.0" encoding="UTF-8"?>
<svg id="moon" xmlns="http://www.w3.org/2000/svg" viewBox="0 0 220.04 338.77">
  <g id="MoonWhite">
    <path class="moon-2" d="M71.51,177.08c3.12,72.27,52.86,136.05,124,158-13.4,2.31-33.74,4.36-58,1-17.33-2.4-50.22-7.38-80.38-31.86-26.53-21.54-37.72-47.43-42.62-59.14C-6.13,195.75-10.53,116.35,40.51,58.08,74.27,19.53,123.5.29,167.51.08c12.73-.06,23.39,1.49,31,3C120.48,25.86,68.11,98.54,71.51,177.08Z"/>
  </g>
  <g id="Moon">
    <path class="moon-1" d="M90,177.5c3.12,72.27,52.86,136.05,124,158-13.4,2.31-33.74,4.36-58,1-17.33-2.4-50.22-7.38-80.38-31.86-26.53-21.54-37.72-47.43-42.62-59.14C12.36,196.16,7.96,116.77,59,58.5,92.77,19.95,141.99.7,186,.5c12.73-.06,23.39,1.49,31,3-78.03,22.78-130.39,95.45-127,174Z"/>
  </g>
  <g id="StarsWhite">
    <path class="moon-2" d="M180.16,285.22l-7.65-11.86-14.11-.42,8.92-10.94-3.96-13.55,13.16,5.1,11.66-7.95-.78,14.09,11.17,8.63-13.64,3.61-4.76,13.29ZM133.89,147.87l3.8-6.62-7.57,1.01-5.12-5.66-1.38,7.51-6.97,3.12,6.72,3.63.82,7.59,5.53-5.27,7.47,1.57-3.3-6.89ZM208.17,48.74l11.87-4.31-10.65-6.8-.43-12.63-9.76,8.02-12.14-3.49,4.62,11.76-7.07,10.47,12.61-.76,7.77,9.96,3.18-12.23Z"/>
  </g>
  <g id="Stars">
    <path class="moon-1" d="M181.68,272.95l-6.87-10.64-12.66-.38,8-9.82-3.55-12.16,11.81,4.57,10.46-7.14-.7,12.65,10.02,7.75-12.24,3.24-4.27,11.92ZM140.15,149.69l3.41-5.94-6.79.91-4.6-5.08-1.24,6.74-6.25,2.8,6.03,3.26.73,6.81,4.96-4.72,6.71,1.41-2.96-6.18ZM206.81,60.75l10.66-3.87-9.55-6.1-.39-11.33-8.76,7.2-10.9-3.13,4.14,10.55-6.35,9.4,11.32-.68,6.97,8.94,2.85-10.97Z"/>
  </g>
</svg>