<?xml version="1.0" encoding="UTF-8"?>
<svg id="starbadge" xmlns="http://www.w3.org/2000/svg" viewBox="0 0 551.54 525.13">
  <defs>
    <style>
      .cls-1, .cls-2, .cls-3 {
        stroke-width: 0px;
      }

      .cls-2 {
        fill: #fff;
      }

      .cls-3 {
        fill: #fff31b;
      }
    </style>
  </defs>
  <g id="StarBase">
    <g>
      <polygon class="cls-3" points="138.88 335.06 1.08 201.65 190.79 173.42 275.08 1.13 360.56 172.83 550.46 199.76 413.58 334.11 446.65 523.05 276.57 434.38 107.11 524.21 138.88 335.06"/>
      <path class="cls-1" d="M275.09,2.26l84.91,170.56.23.47.52.07,188.64,26.75-135.98,133.46-.38.37.09.52,32.85,187.67-168.95-88.08-.47-.24-.46.25-168.34,89.24,31.56-187.89.09-.52-.38-.37L2.15,201.99l188.45-28.04.52-.08.23-.47L275.09,2.26M275.08,0l-84.62,172.96L0,201.3l138.35,133.93-31.9,189.89,170.13-90.19,170.74,89.02-33.2-189.67,137.42-134.88-190.65-27.03L275.08,0h0Z"/>
    </g>
  </g>
  <g id="StarEye">
    <g>
      <ellipse class="cls-1" cx="230.94" cy="217.7" rx="17.5" ry="36"/>
      <path class="cls-1" d="M230.94,182.2c4.41,0,8.61,3.6,11.83,10.13,3.33,6.76,5.17,15.77,5.17,25.37s-1.84,18.61-5.17,25.37c-3.22,6.53-7.42,10.13-11.83,10.13s-8.61-3.6-11.83-10.13c-3.33-6.76-5.17-15.77-5.17-25.37s1.84-18.61,5.17-25.37c3.22-6.53,7.42-10.13,11.83-10.13M230.94,181.2c-9.94,0-18,16.34-18,36.5s8.06,36.5,18,36.5,18-16.34,18-36.5-8.06-36.5-18-36.5h0Z"/>
    </g>
    <g>
      <ellipse class="cls-1" cx="323.94" cy="217.7" rx="17.5" ry="36"/>
      <path class="cls-1" d="M323.94,182.2c4.41,0,8.61,3.6,11.83,10.13,3.33,6.76,5.17,15.77,5.17,25.37s-1.84,18.61-5.17,25.37c-3.22,6.53-7.42,10.13-11.83,10.13s-8.61-3.6-11.83-10.13c-3.33-6.76-5.17-15.77-5.17-25.37s1.84-18.61,5.17-25.37c3.22-6.53,7.42-10.13,11.83-10.13M323.94,181.2c-9.94,0-18,16.34-18,36.5s8.06,36.5,18,36.5,18-16.34,18-36.5-8.06-36.5-18-36.5h0Z"/>
    </g>
  </g>
  <g id="StarMouth">
    <path class="cls-1" d="M181.94,321.2s95.15,69,188.53,0"/>
  </g>
  <g id="StarHighlight">
    <g>
      <ellipse class="cls-2" cx="230.94" cy="211.2" rx="6.5" ry="13.5"/>
      <path class="cls-1" d="M230.94,198.2c2.9,0,6,5.22,6,13s-3.1,13-6,13-6-5.22-6-13,3.1-13,6-13M230.94,197.2c-3.87,0-7,6.27-7,14s3.13,14,7,14,7-6.27,7-14-3.13-14-7-14h0Z"/>
    </g>
    <g>
      <ellipse class="cls-2" cx="323.94" cy="211.2" rx="6.5" ry="13.5"/>
      <path class="cls-1" d="M323.94,198.2c2.9,0,6,5.22,6,13s-3.1,13-6,13-6-5.22-6-13,3.1-13,6-13M323.94,197.2c-3.87,0-7,6.27-7,14s3.13,14,7,14,7-6.27,7-14-3.13-14-7-14h0Z"/>
    </g>
  </g>
</svg>