<?xml version="1.0" encoding="UTF-8"?>
<svg id="symbol" xmlns="http://www.w3.org/2000/svg" viewBox="0 0 683.81 296.28">
  <defs>
    <style>
      .symbol-1 {
        fill: red;
      }

      .symbol-1, .symbol-2 {
        stroke-width: 0px;
      }

      .symbol-2 {
        fill: aqua;
      }
    </style>
  </defs>
  <g id="Symbol">
    <path class="symbol-1" d="M0,0c112.67,29.33,225.33,58.67,338,88C453.27,58.67,568.54,29.33,683.81,0l-199.85,138.27,199.85,158.01-341.81-92.28L0,296.28l172.58-148.14L0,0Z"/>
  </g>
  <g id="Symbol2">
    <path class="symbol-2" d="M129.97,60c68.71,17.38,137.42,34.76,206.14,52.13,70.3-17.38,140.6-34.76,210.9-52.13l-121.88,81.92,121.88,93.61c-69.49-18.22-138.97-36.45-208.46-54.67-69.52,18.22-139.05,36.45-208.57,54.67l105.25-87.76-105.25-87.76Z"/>
  </g>
</svg>